<svg xmlns="http://www.w3.org/2000/svg" direction="ltr" width="281" height="146.33425593978586" viewBox="80 599.6657440602141 281 146.33425593978586" stroke-linecap="round" stroke-linejoin="round" style="background-color: transparent;" encoding="UTF-8&quot;"><defs/><g transform="matrix(1, 0, 0, 1, 151, 706)" opacity="1"><path d="M-3.1038,-0.0497 Q-3.5668,-1.1557 -4.3352,-5.0522 T-5.7416,-11.6887 -7.1284,-16.5491 -8.5457,-20.86 -9.6549,-25.0059 -10.1649,-29.2427 -10.2586,-31.7983 -10.2413,-32.3447 -10.0936,-32.8711 -9.8243,-33.3468 -9.449,-33.7443 -8.9894,-34.0404 -8.4724,-34.2179 -7.9278,-34.2665 -7.3875,-34.1833 -6.8828,-33.9733 -6.443,-33.6486 -6.0937,-33.2281 -5.8552,-32.7362 -4.3722,-29.926 -2.3631,-26.0689 -0.0066,-22.3394 2.8678,-17.9423 5.0556,-14.5418 6.8764,-11.6848 6.608,-9.866 5.9352,-11.1683 6.8265,-14.7551 8.6421,-20.0569 10.8749,-25.7501 12.5221,-29.7904 14.1372,-32.8881 16.8059,-34.4355 20.2331,-32.6421 23.2566,-27.7219 25.7193,-22.6214 27.7306,-18.5065 29.6944,-14.1948 30.8444,-11.5208 30.9141,-10.9046 30.7835,-10.2984 30.466,-9.7656 29.9952,-9.3621 29.4201,-9.1301 28.801,-9.0939 28.2028,-9.2572 27.688,-9.603 27.3106,-10.0951 27.1101,-10.6819 27.1074,-11.302 27.303,-11.8905 27.6761,-12.3858 28.1879,-12.736 28.7848,-12.9044 29.4041,-12.8734 29.9812,-12.6463 30.4555,-12.2468 30.7774,-11.7168 30.9132,-11.1117 30.8488,-10.4949 30.5907,-9.9311 30.1661,-9.4791 29.6194,-9.1864 29.0079,-9.0835 28.3955,-9.1813 27.8464,-9.4696 27.4181,-9.918 27.2409,-10.1771 26.1021,-12.5137 24.1007,-16.6755 21.9793,-20.7017 18.9971,-26.3887 16.5738,-28.1945 15.0994,-24.227 13.3138,-18.7078 11.8959,-13.4271 10.9689,-9.5912 9.6528,-6.5888 6.7544,-5.7456 3.4959,-8.2208 1.1752,-11.8721 -1.2498,-15.1991 -3.4597,-18.3333 -5.4649,-21.2291 -7.3696,-24.6317 -9.2263,-29.0092 -10.2586,-31.7983 -10.2413,-32.3447 -10.0936,-32.8711 -9.8243,-33.3468 -9.449,-33.7443 -8.9894,-34.0404 -8.4724,-34.2179 -7.9278,-34.2665 -7.3875,-34.1833 -6.8828,-33.9733 -6.443,-33.6486 -6.0937,-33.2281 -5.8552,-32.7362 -5.8537,-30.1505 -5.5977,-26.0974 -4.5102,-22.3303 -2.7738,-17.998 -0.8842,-12.9015 0.9012,-6.6927 2.2152,-2.1719 2.7423,-0.5108 2.729,0.5776 2.3003,1.578 1.5213,2.3382 0.5107,2.7424 -0.5777,2.729 -1.5781,2.3002 -2.3382,1.5211 -2.6408,1.0562 -3.1038,-0.0497 Z" fill="#599f57" stroke-linecap="round"/></g><g transform="matrix(1, 0, 0, 1, 204, 702)" opacity="1"><path d="M-2.8796,-1.7038 Q-3.0208,-3.7118 -3.3233,-5.3912 T-3.8006,-9.0646 -3.7664,-14.2699 -2.9558,-20.2226 -1.308,-25.6526 0.7622,-30.6675 2.8075,-35.1737 4.8465,-39.2855 7.9528,-42.5063 11.683,-39.9003 13.6945,-33.8151 14.2433,-29.2537 14.5957,-25.1521 13.7276,-23.0587 15.0266,-26.9051 20.6625,-37.4586 26.4802,-48.9035 31.0764,-58.3862 34.7724,-65.9086 38.2898,-71.4855 40.3216,-74.1261 40.6399,-74.495 41.0372,-74.7771 41.4905,-74.9559 41.9734,-75.021 42.4578,-74.9686 42.9156,-74.8018 43.3202,-74.5303 43.6481,-74.1699 43.8802,-73.7415 44.003,-73.2699 44.0094,-72.7827 43.899,-72.3081 43.2498,-69.1133 43.3718,-62.6376 44.4474,-55.5426 45.0447,-48.1874 45.3656,-40.3216 45.5374,-32.8476 45.6289,-26.4769 45.7044,-21.3846 45.0024,-18.7206 45.1194,-20.2066 47.8179,-25.0846 51.5962,-30.8399 55.1302,-35.6843 57.7623,-38.6494 60.408,-39.6283 62.2999,-37.9475 62.2526,-33.7333 60.5973,-30.1807 60.2042,-30.6745 62.2837,-33.5461 65.7297,-35.5269 68.8198,-34.598 69.5086,-31.3877 69.0604,-28.1697 68.2869,-25.018 67.6776,-22.9189 67.1922,-22.1205 66.4773,-21.5189 65.6077,-21.1771 64.6745,-21.1308 63.7754,-21.3849 63.0045,-21.9128 62.4425,-22.6593 62.1483,-23.5461 62.1526,-24.4805 62.4551,-25.3645 63.0241,-26.1057 63.7999,-26.6264 64.7013,-26.8721 65.6341,-26.8171 66.5004,-26.4672 67.2097,-25.8589 67.6876,-25.056 67.8841,-24.1426 67.7786,-23.2142 67.3823,-22.3681 66.7365,-21.6928 65.9089,-21.2591 64.9861,-21.1124 64.0648,-21.268 63.2414,-21.7097 62.6021,-22.3911 62.2139,-23.241 62.1174,-24.1704 62.1453,-24.6425 62.4655,-26.3274 63.7279,-29.5482 65.8148,-30.4534 65.3716,-28.263 61.3707,-25.2735 57.7846,-26.281 56.7255,-30.207 57.823,-34.0519 59.3306,-35.7526 58.4784,-33.2984 55.303,-28.5341 51.8046,-22.5949 49.3047,-18.442 46.7988,-15.6206 43.6198,-16.6066 42.1479,-21.3383 42.1054,-26.4188 41.9844,-32.7579 41.7739,-40.1604 41.4068,-47.8719 40.7661,-54.9563 39.6137,-61.853 39.5268,-69.6292 40.3216,-74.1261 40.6399,-74.495 41.0372,-74.7771 41.4905,-74.9559 41.9734,-75.021 42.4578,-74.9686 42.9156,-74.8018 43.3202,-74.5303 43.6481,-74.1699 43.8802,-73.7415 44.003,-73.2699 44.0094,-72.7827 43.899,-72.3081 41.7483,-69.7172 38.1362,-64.2626 34.5629,-56.7299 30.0754,-47.1158 24.3438,-35.3886 17.0301,-23.5603 11.8164,-20.7113 10.5836,-24.8305 10.2798,-28.7107 9.6477,-32.9161 8.6751,-37.5238 8.6343,-39.7681 8.2121,-37.6112 6.3001,-33.6448 4.4335,-29.2105 2.6624,-24.533 1.3953,-19.717 0.9581,-14.4274 1.1455,-9.7958 1.7435,-6.1614 2.4353,-2.295 2.6924,0.2313 2.3989,1.2441 1.7402,2.0674 0.8166,2.576 -0.2314,2.6924 -1.2442,2.3989 -2.0675,1.7401 -2.5761,0.8164 -2.7385,0.3041 -2.8796,-1.7038 Z" fill="#599f57" stroke-linecap="round"/></g><g transform="matrix(1, 0, 0, 1, 284, 714)" opacity="1"><path d="M-0.961,-3.5979 Q0.4928,-5.747 1.7783,-7.6114 T4.5047,-11.2539 8.4823,-14.2393 12.0439,-13.5309 12.9901,-9.4058 11.6076,-7.9519 12.5681,-12.2633 15.7366,-17.4184 17.7151,-20.113 18.9658,-21.4553 19.3733,-21.8999 19.8752,-22.234 20.4425,-22.4382 21.0423,-22.5008 21.6395,-22.418 22.1996,-22.1947 22.69,-21.8438 23.0822,-21.3858 23.3533,-20.8472 23.4877,-20.2594 23.4775,-19.6565 23.3232,-19.0735 22.605,-17.5309 21.649,-13.2588 21.1692,-8.8574 20.8026,-5.6037 20.4569,-3.337 20.1166,-2.5872 19.5547,-1.9853 18.83,-1.5944 18.0184,-1.4553 17.2049,-1.5826 16.4746,-1.9631 15.904,-2.5568 15.5529,-3.3016 15.458,-4.1195 15.6292,-4.925 16.0487,-5.6335 16.6725,-6.1711 17.4352,-6.4813 18.2571,-6.5318 19.0521,-6.3171 19.7369,-5.8599 20.2399,-5.2079 20.5083,-4.4295 20.5141,-3.6061 20.2567,-2.8239 19.763,-2.1649 19.0848,-1.698 18.2929,-1.4721 17.4704,-1.5109 16.7033,-1.8103 16.072,-2.339 15.6426,-3.0416 15.46,-3.8445 15.4344,-4.2605 15.5763,-6.1337 16.1524,-10.938 16.7026,-15.4659 17.8039,-19.1357 18.9658,-21.4553 19.3733,-21.8999 19.8752,-22.234 20.4425,-22.4382 21.0423,-22.5008 21.6395,-22.418 22.1996,-22.1947 22.69,-21.8438 23.0822,-21.3858 23.3533,-20.8472 23.4877,-20.2594 23.4775,-19.6565 23.3232,-19.0735 22.0103,-17.7253 19.8958,-14.9308 17.3097,-10.3507 12.7644,-5.2833 8.6655,-5.3324 7.8133,-9.6806 8.8062,-11.0567 8.217,-8.6819 5.9235,-5.0768 3.6268,-0.8452 2.0456,1.8558 1.1797,2.4973 0.1342,2.7587 -0.9318,2.6 -1.8559,2.0455 -2.4974,1.1796 -2.7587,0.134 -2.6,-0.9319 -2.4147,-1.449 -0.961,-3.5979 Z" fill="#599f57" stroke-linecap="round"/></g><g transform="matrix(1, 0, 0, 1, 126, 708)" opacity="1"><path d="M-4.6704,-2.024 Q-6.9952,-5.6605 -8.7531,-8.8816 T-11.7086,-14.8331 -14.3815,-20.8454 -15.9475,-24.4466 -16.0223,-25.0974 -15.8853,-25.7381 -15.5509,-26.3014 -15.0542,-26.7285 -14.4471,-26.9747 -13.7931,-27.014 -13.1609,-26.8425 -12.6164,-26.4781 -12.2169,-25.959 -12.004,-25.3394 -12.0001,-24.6843 -12.2056,-24.0622 -12.599,-23.5384 -13.1391,-23.1675 -13.7693,-22.9886 -14.4236,-23.0202 -15.0336,-23.2591 -15.5354,-23.6803 -15.8764,-24.2396 -16.021,-24.8786 -15.9539,-25.5303 -15.6823,-26.1264 -15.2346,-26.6047 -14.6576,-26.9149 -14.0117,-27.0246 -13.3646,-26.9223 -12.7841,-26.6188 -12.3308,-26.1458 -12.1431,-25.8724 -10.5578,-22.6425 -7.7226,-16.9357 -4.6263,-11.5083 -0.217,-5.085 2.5649,-1.1024 2.7915,-0.0369 2.5931,1.0342 1.9999,1.9478 1.1023,2.5649 0.0368,2.7915 -1.0343,2.5931 -1.9479,1.9998 -2.3457,1.6125 -4.6704,-2.024 Z" fill="#599f57" stroke-linecap="round"/></g><g transform="matrix(1, 0, 0, 1, 191, 687)" opacity="1"><path d="M3.5368,2.2428 Q4.5269,5.3952 5.6707,7.9279 T7.7037,12.6518 9.7147,17.5164 10.9176,20.5043 10.9755,21.1426 10.8266,21.7659 10.4864,22.3091 9.9906,22.7151 9.391,22.9417 8.7506,22.9649 8.1362,22.7824 7.6123,22.4133 7.2337,21.8962 7.04,21.2853 7.0515,20.6445 7.2671,20.0409 7.664,19.5378 8.2009,19.1877 8.8214,19.0274 9.4606,19.0737 10.0516,19.3216 10.5325,19.7452 10.8529,20.3002 10.9794,20.9285 10.8986,21.5643 10.619,22.141 10.1699,22.5982 9.5983,22.8881 8.9641,22.9803 8.3336,22.8652 7.773,22.5548 7.3407,22.0816 7.1635,21.8098 5.9453,19.1792 3.7453,14.498 1.3399,9.7466 -1.3152,3.9775 -2.6237,0.3876 -2.5723,-0.646 -2.1293,-1.5812 -1.3621,-2.2757 -0.3875,-2.6238 0.6461,-2.5723 1.5813,-2.1292 2.2758,-1.362 2.5467,-0.9094 3.5368,2.2428 Z" fill="#599f57" stroke-linecap="round"/></g><g transform="matrix(1, 0, 0, 1, 226, 705)" opacity="1"><path d="M-2.9779,-1.5714 Q-2.9443,-3.1428 -2.414,-5.0597 T-1.3859,-8.3606 -0.2601,-11.349 0.589,-13.3487 1.1459,-14.048 1.8969,-14.5328 2.7634,-14.7525 3.6547,-14.6839 4.4774,-14.3344 5.1455,-13.7404 5.5889,-12.9642 5.7612,-12.0871 5.6445,-11.2008 5.2509,-10.3983 4.6216,-9.7634 3.8225,-9.3627 2.9373,-9.2381 2.0587,-9.4027 1.2786,-9.8392 0.6788,-10.502 0.322,-11.3216 0.2456,-12.2123 0.4575,-13.0807 0.9357,-13.8359 1.63,-14.399 2.4677,-14.7108 3.3612,-14.7389 4.2169,-14.4802 4.9451,-13.9618 5.4697,-13.238 5.7357,-12.3846 5.7153,-11.4909 5.632,-11.0461 5.0868,-9.4121 3.7429,-5.4277 2.9779,-1.5388 2.897,0.5763 2.4559,1.6411 1.641,2.456 0.5761,2.897 -0.5764,2.897 -1.6412,2.4559 -2.4561,1.6408 -2.8971,0.576 -3.0116,-0.0002 -2.9779,-1.5714 Z" fill="#599f57" stroke-linecap="round"/></g><g transform="matrix(1, 0, 0, 1, 291, 684)" opacity="1"><path d="M-2.4081,-1.9638 Q-2.1735,-3.55 -0.6851,-6.1197 T2.0043,-10.7353 4.8616,-14.9345 7.831,-18.8593 10.7856,-22.8742 12.6465,-25.3395 13.1451,-25.7015 13.7332,-25.8854 14.3492,-25.8719 14.9286,-25.6624 15.4108,-25.2789 15.7453,-24.7614 15.8971,-24.1643 15.8502,-23.5499 15.6097,-22.9827 15.2005,-22.5219 14.6657,-22.216 14.0612,-22.0968 13.4503,-22.1769 12.8969,-22.4478 12.459,-22.8813 12.1825,-23.4319 12.0963,-24.042 12.2093,-24.6477 12.5099,-25.1856 12.9665,-25.5993 13.5313,-25.8456 14.1451,-25.8987 14.7438,-25.7529 15.2646,-25.4237 15.653,-24.9453 15.8683,-24.368 15.888,-23.7522 15.7101,-23.1623 15.5729,-22.8822 13.9949,-20.5942 11.1559,-16.4542 8.5179,-12.634 6.0815,-8.4924 4.0422,-4.4948 2.8524,-1.1464 2.4699,0.8688 1.9494,1.7479 1.1321,2.3609 0.1424,2.6144 -0.869,2.4699 -1.748,1.9493 -2.3609,1.1319 -2.6144,0.1423 -2.6427,-0.3777 -2.4081,-1.9638 Z" fill="#599f57" stroke-linecap="round"/></g><g transform="matrix(1, 0, 0, 1, 321, 700)" opacity="1"><path d="M-0.2422,-3.7945 Q1.643,-5.698 3.9479,-8.1255 T6.5465,-10.7914 7.1946,-11.1617 7.927,-11.3057 8.6671,-11.2083 9.3373,-10.8797 9.8675,-10.3543 10.2022,-9.6871 10.3063,-8.9479 10.1689,-8.2142 9.8045,-7.5628 9.2511,-7.0618 8.5667,-6.7638 7.823,-6.6999 7.0979,-6.8768 6.4671,-7.276 5.9969,-7.8557 5.7364,-8.5553 5.7129,-9.3013 5.9288,-10.0159 6.3616,-10.624 6.966,-11.0622 7.6786,-11.2844 8.4248,-11.2674 9.1266,-11.0131 9.7104,-10.5479 10.1152,-9.9207 10.2985,-9.1971 10.2411,-8.4529 9.9491,-7.7659 9.747,-7.4467 7.6066,-4.8733 3.7967,-0.2043 1.6846,2.2262 0.7044,2.7014 -0.383,2.7653 -1.4121,2.4083 -2.2263,1.6845 -2.7014,0.7043 -2.7653,-0.3831 -2.4082,-1.4122 -2.1274,-1.8912 -0.2422,-3.7945 Z" fill="#599f57" stroke-linecap="round"/></g></svg>