<svg xmlns="http://www.w3.org/2000/svg" direction="ltr" width="235.37454114030572" height="149.4065146813009" viewBox="683.6254588596943 444.94477624510967 235.37454114030572 149.4065146813009" stroke-linecap="round" stroke-linejoin="round" style="background-color: transparent;" encoding="UTF-8&quot;"><defs/><g transform="matrix(1, 0, 0, 1, 736, 556)" opacity="1"><path d="M-3.4749,-3.777 Q-3.981,-8.0229 -5.5393,-14.7251 T-9.2686,-28.7167 -13.9405,-42.231 -18.2598,-52.3662 -22.4439,-60.2047 -24.8869,-64.3619 -24.9847,-64.8321 -24.9673,-65.3119 -24.8354,-65.7737 -24.5969,-66.1905 -24.2656,-66.5381 -23.8608,-66.7963 -23.4059,-66.9501 -22.9274,-66.9905 -22.4531,-66.9153 -22.0106,-66.7287 -21.6256,-66.4417 -21.3205,-66.0709 -18.9508,-63.6511 -13.0718,-58.7189 -4.6178,-52.0848 4.9487,-43.0174 12.8036,-33.4019 17.869,-25.0683 20.934,-17.8776 22.6311,-12.2882 24.0532,-8.7608 24.9135,-7.2677 24.922,-6.802 24.8187,-6.3478 24.6098,-5.9315 24.3073,-5.5773 23.9288,-5.3057 23.4963,-5.1327 23.035,-5.0682 22.5717,-5.1159 22.1332,-5.2732 21.7451,-5.5308 21.43,-5.8738 21.2061,-6.2823 20.8335,-9.4611 21.1305,-19.2389 22.4905,-33.4268 24.8265,-48.74 27.6949,-62.8392 29.7313,-72.6212 31.2747,-79.8113 32.1643,-83.5997 32.3611,-84.0216 32.6533,-84.3841 33.0236,-84.6662 33.4508,-84.8515 33.9098,-84.9291 34.3741,-84.8946 34.8167,-84.75 35.2118,-84.5037 35.5364,-84.17 35.7718,-83.7683 35.9042,-83.3219 35.9259,-82.8569 34.028,-75.9035 29.18,-54.8827 23.8878,-27.9523 20.0412,-7.834 17.5305,3.1354 15.1138,7.4156 13.1768,0.2911 14.364,-15.8813 18.5756,-32.0466 24.305,-46.4363 29.5013,-56.8787 34.4573,-65.3143 37.5474,-69.956 37.8184,-70.2759 38.1581,-70.5216 38.5467,-70.6789 38.9617,-70.7385 39.3789,-70.6972 39.774,-70.5572 40.1242,-70.3267 40.4091,-70.0191 40.612,-69.6523 40.7213,-69.2475 40.7305,-68.8284 40.6391,-68.4192 38.9402,-64.4667 35.8369,-55.2573 31.9927,-41.7265 27.8596,-27.8357 25.1192,-18.5865 23.2287,-14.6254 24.2553,-15.705 30.3073,-20.6456 39.8958,-27.8844 50.0765,-34.4491 57.3382,-36.2553 58.1236,-29.5895 54.1866,-18.7569 49.7042,-8.7305 44.5096,2.0127 41.5195,7.9337 41.2519,8.2702 40.9115,8.5329 40.5182,8.7065 40.0947,8.7809 39.6658,8.7519 39.2562,8.621 38.8899,8.3958 38.5881,8.0896 38.3684,7.72 38.2435,7.3086 38.2206,6.8793 38.3012,6.4569 41.2187,2.1623 46.0874,-3.7135 52.2925,-8.8272 61.4921,-15.786 70.911,-21.9182 78.2208,-25.8033 83.2326,-27.7529 86.7465,-26.7402 87.7153,-23.0314 86.5585,-19.5039 84.0598,-15.7167 82.0485,-13.0767 81.5287,-12.6423 80.92,-12.345 80.2579,-12.202 79.5807,-12.2215 78.928,-12.4026 78.3375,-12.7347 77.8437,-13.1984 77.4752,-13.7668 77.2534,-14.4069 77.1913,-15.0814 77.2924,-15.7512 77.5509,-16.3774 80.6037,-18.834 87.0068,-23.5338 94.6432,-28.679 106.6034,-36.0386 123.2913,-45.4461 137.1129,-52.2493 144.2248,-54.6036 148.6368,-54.8707 151.223,-54.8977 151.8173,-54.7271 152.326,-54.3757 152.6959,-53.8803 152.8882,-53.2927 152.8828,-52.6745 152.6803,-52.0903 152.3019,-51.6014 151.7871,-51.2589 151.19,-51.0987 150.5729,-51.1376 150.0006,-51.3715 149.5329,-51.7758 149.2188,-52.3084 149.0912,-52.9134 149.1635,-53.5274 149.428,-54.0862 149.8571,-54.5313 150.4059,-54.8161 151.0169,-54.9107 151.6261,-54.8053 152.1698,-54.5108 152.591,-54.0582 152.8456,-53.4948 152.907,-52.8796 152.7687,-52.2769 152.4452,-51.75 151.9704,-51.354 151.394,-51.1303 151.0878,-51.0657 148.8166,-50.9223 145.0469,-50.8168 138.7833,-48.7097 125.3363,-41.8874 108.944,-32.3718 97.3548,-24.8675 89.7977,-19.2558 84.2007,-14.8176 82.0485,-13.0767 81.5287,-12.6423 80.92,-12.345 80.2579,-12.202 79.5807,-12.2215 78.928,-12.4026 78.3375,-12.7347 77.8437,-13.1984 77.4752,-13.7668 77.2534,-14.4069 77.1913,-15.0814 77.2924,-15.7512 77.5509,-16.3774 79.0542,-18.2473 81.5257,-21.9003 79.8804,-22.6352 72.8788,-18.8752 63.7395,-12.8488 54.7341,-5.9228 48.1673,-0.4422 43.6602,4.7368 41.5195,7.9337 41.2519,8.2702 40.9115,8.5329 40.5182,8.7065 40.0947,8.7809 39.6658,8.7519 39.2562,8.621 38.8899,8.3958 38.5881,8.0896 38.3684,7.72 38.2435,7.3086 38.2206,6.8793 38.3012,6.4569 41.2183,0.5025 46.3314,-10.2213 50.6728,-20.1456 54.6192,-29.2243 55.9985,-33.6037 51.5358,-31.2993 42.2167,-24.8697 32.7055,-17.5195 26.5138,-12.5606 22.8806,-10.7317 20.9926,-13.2518 21.6779,-19.5869 24.3722,-28.8665 28.4201,-42.7227 32.1022,-55.9369 35.4487,-65.4418 37.5474,-69.956 37.8184,-70.2759 38.1581,-70.5216 38.5467,-70.6789 38.9617,-70.7385 39.3789,-70.6972 39.774,-70.5572 40.1242,-70.3267 40.4091,-70.0191 40.612,-69.6523 40.7213,-69.2475 40.7305,-68.8284 40.6391,-68.4192 37.6038,-63.7485 32.672,-55.3015 27.6125,-45.0993 22.0818,-31.1325 18.0236,-15.4582 15.523,-1.5183 14.1454,4.7683 14.3348,1.9994 16.5138,-8.5119 20.3072,-28.6488 25.5653,-55.7704 30.3071,-76.7966 32.1643,-83.5997 32.3611,-84.0216 32.6533,-84.3841 33.0236,-84.6662 33.4508,-84.8515 33.9098,-84.9291 34.3741,-84.8946 34.8167,-84.75 35.2118,-84.5037 35.5364,-84.17 35.7718,-83.7683 35.9042,-83.3219 35.9259,-82.8569 34.929,-79.0897 33.2397,-71.9058 31.255,-62.1197 28.4864,-48.2011 26.2751,-33.0834 25.0489,-18.8947 24.7107,-9.7703 24.9135,-7.2677 24.922,-6.802 24.8187,-6.3478 24.6098,-5.9315 24.3073,-5.5773 23.9288,-5.3057 23.4963,-5.1327 23.035,-5.0682 22.5717,-5.1159 22.1332,-5.2732 21.7451,-5.5308 21.43,-5.8738 21.2061,-6.2823 20.4705,-7.7918 19.2361,-11.2565 17.6288,-16.4971 14.7473,-23.1988 9.911,-31.0703 2.3458,-40.2225 -7.042,-48.9374 -15.1071,-55.1143 -21.5914,-60.812 -24.8869,-64.3619 -24.9847,-64.8321 -24.9673,-65.3119 -24.8354,-65.7737 -24.5969,-66.1905 -24.2656,-66.5381 -23.8608,-66.7963 -23.4059,-66.9501 -22.9274,-66.9905 -22.4531,-66.9153 -22.0106,-66.7287 -21.6256,-66.4417 -21.3205,-66.0709 -18.8313,-61.9368 -14.513,-54.0344 -9.8555,-43.7011 -4.7693,-29.9756 -0.5332,-15.7361 2.142,-4.6649 2.9455,0.1172 2.6765,1.2355 1.9999,2.1657 1.0189,2.7662 -0.1173,2.9455 -1.2356,2.6764 -2.1658,1.9998 -2.7662,1.0187 -2.9689,0.4686 -3.4749,-3.777 Z" fill="#599f57" stroke-linecap="round"/></g></svg>