<svg xmlns="http://www.w3.org/2000/svg" direction="ltr" width="279.75522386595816" height="155.3370708402374" viewBox="370.24477613404184 563.3650608911739 279.75522386595816 155.3370708402374" stroke-linecap="round" stroke-linejoin="round" style="background-color: transparent;" encoding="UTF-8&quot;"><defs/><g transform="matrix(1, 0, 0, 1, 471, 673)" opacity="1"><path d="M-3.1857,-2.5704 Q-3.7272,-5.7073 -4.2269,-8.5729 T-5.0011,-14.4604 -5.4104,-20.262 -5.6931,-24.7856 -6.0327,-27.6997 -6.2075,-29.1379 -6.1103,-29.6622 -5.8905,-30.1481 -5.5608,-30.5671 -5.1404,-30.8951 -4.6537,-31.113 -4.129,-31.208 -3.5969,-31.1748 -3.0881,-31.0151 -2.6323,-30.7383 -2.2561,-30.3605 -1.9812,-29.9036 -1.8236,-29.3942 -1.7043,-27.689 -0.334,-24.5414 3.0328,-20.3101 7.029,-16.2368 10.1659,-13.9028 13.8786,-14.2476 17.7771,-17.3798 20.9611,-22.5474 23.9568,-28.746 26.2888,-35.4574 29.1972,-41.6493 32.222,-39.962 34.1958,-31.2721 35.7521,-23.6695 36.3631,-19.9187 37.529,-21.0811 41.1584,-27.6279 45.8055,-39.6839 50.2144,-54.6183 53.805,-67.6427 57.346,-78.7666 59.3912,-84.687 59.6023,-85.0521 59.8947,-85.356 60.2514,-85.5811 60.6515,-85.7143 61.0719,-85.7479 61.4882,-85.6799 61.876,-85.5143 62.213,-85.2606 62.4794,-84.9337 62.6599,-84.5525 62.7439,-84.1392 62.7265,-83.7178 61.676,-80.6535 60.4748,-73.8935 60.1698,-66.4362 59.9813,-57.3617 60.316,-45.7177 61.1631,-35.0742 62.0699,-27.631 63.0355,-23.2416 62.8641,-21.9691 64.3155,-25.8112 68.1748,-33.0417 71.5528,-40.4021 75.2035,-47.9721 77.3278,-51.9686 77.6082,-52.3406 77.9695,-52.6348 78.3907,-52.8339 78.8473,-52.9264 79.3127,-52.907 79.76,-52.7767 80.1632,-52.5432 80.4987,-52.22 80.7471,-51.8259 80.894,-51.3837 80.9308,-50.9193 80.8554,-50.4596 78.6068,-44.9429 74.7283,-32.3512 71.6402,-17.2219 69.245,-3.4694 67.6839,5.9628 66.8862,11.2243 66.8341,14.1672 66.9491,15.594 66.7503,16.0432 66.4498,16.4318 66.065,16.7371 65.6183,16.9415 65.1357,17.0331 64.6452,17.0065 64.1753,16.8633 63.7534,16.6117 63.4039,16.2666 63.1471,15.8478 62.9981,15.3797 62.9654,14.8895 64.7492,11.6171 68.2831,6.2448 71.4851,1.919 73.8906,-1.6281 76.2477,-4.51 77.9646,-5.9932 78.6553,-6.2194 79.382,-6.2133 80.0688,-5.9755 80.6436,-5.5308 81.0463,-4.9258 81.2349,-4.2239 81.1894,-3.4986 80.9147,-2.8258 80.4395,-2.2759 79.8136,-1.9065 79.1025,-1.7563 78.3807,-1.841 77.7237,-2.1518 77.2004,-2.6561 76.8655,-3.3011 76.754,-4.0192 76.8778,-4.7354 77.2237,-5.3745 77.7556,-5.8698 78.4178,-6.1693 79.1409,-6.2416 79.8493,-6.0793 80.4688,-5.6992 80.9345,-5.1413 81.1976,-4.4638 81.2307,-3.7378 81.0302,-3.0393 80.6171,-2.4413 80.3619,-2.1764 79.2128,-1.593 77,0.5382 74.5206,4.1152 71.3306,8.6121 68.2889,13.2185 66.9491,15.594 66.7503,16.0432 66.4498,16.4318 66.065,16.7371 65.6183,16.9415 65.1357,17.0331 64.6452,17.0065 64.1753,16.8633 63.7534,16.6117 63.4039,16.2666 63.1471,15.8478 62.9981,15.3797 62.9654,14.8895 62.9324,13.4971 63.2595,10.6379 64.1775,5.3947 65.7038,-4.0771 68.0651,-17.9469 71.138,-33.3363 75.0209,-46.2818 77.3278,-51.9686 77.6082,-52.3406 77.9695,-52.6348 78.3907,-52.8339 78.8473,-52.9264 79.3127,-52.907 79.76,-52.7767 80.1632,-52.5432 80.4987,-52.22 80.7471,-51.8259 80.894,-51.3837 80.9308,-50.9193 80.8554,-50.4596 78.7092,-46.4718 75.0048,-38.8453 71.6326,-31.2117 68.3214,-24.6902 65.0551,-20.0716 61.6947,-19.3474 59.5715,-22.3258 58.6237,-27.1854 57.6864,-34.7872 56.814,-45.6214 56.4531,-57.4362 56.612,-66.5903 56.932,-73.5464 58.2283,-80.6993 59.3912,-84.687 59.6023,-85.0521 59.8947,-85.356 60.2514,-85.5811 60.6515,-85.7143 61.0719,-85.7479 61.4882,-85.6799 61.876,-85.5143 62.213,-85.2606 62.4794,-84.9337 62.6599,-84.5525 62.7439,-84.1392 62.7265,-83.7178 60.745,-77.7789 57.2515,-66.6908 53.6911,-53.5959 49.2292,-38.3178 44.3091,-25.5884 39.5169,-17.9159 35.1226,-17.4767 32.1241,-22.8372 30.3831,-30.8317 29.7236,-38.0102 30.4084,-39.2928 29.8031,-34.2444 27.4111,-27.1245 24.3044,-20.4264 20.5045,-14.3791 16.3326,-10.5993 11.8889,-9.4663 8.0906,-10.5276 4.2365,-13.3352 -0.3504,-17.715 -4.4336,-23.0986 -6.2171,-27.3644 -6.2075,-29.1379 -6.1103,-29.6622 -5.8905,-30.1481 -5.5608,-30.5671 -5.1404,-30.8951 -4.6537,-31.113 -4.129,-31.208 -3.5969,-31.1748 -3.0881,-31.0151 -2.6323,-30.7383 -2.2561,-30.3605 -1.9812,-29.9036 -1.8236,-29.3942 -1.7129,-27.9524 -1.595,-25.0426 -1.3084,-20.6337 -0.6932,-15.1578 0.376,-9.546 1.8528,-3.65 2.6519,-0.0391 2.465,0.9788 1.9028,1.8476 1.0509,2.4351 0.039,2.6519 -0.9789,2.465 -1.8477,1.9027 -2.4352,1.0507 -2.6442,0.5665 -3.1857,-2.5704 Z" fill="#599f57" stroke-linecap="round"/></g><g transform="matrix(1, 0, 0, 1, 567, 667)" opacity="1"><path d="M-1.3814,-2.8528 Q-0.4663,-4.3933 1.072,-6.4029 T4.5896,-10.8359 8.3584,-15.2742 11.5615,-19.0237 14.6389,-22.0416 16.4858,-23.5085 16.8909,-23.8271 17.3604,-24.0394 17.867,-24.1332 18.3814,-24.103 18.8736,-23.9507 19.3151,-23.6849 19.6801,-23.3212 19.9475,-22.8807 20.1017,-22.389 20.1337,-21.8748 20.0417,-21.3678 19.8311,-20.8975 18.1995,-18.3796 15.8321,-13.7146 14.2694,-8.7805 12.9657,-6.2081 13.5491,-8.2008 15.9375,-12.4913 18.5305,-17.2646 20.9032,-21.4165 23.0103,-24.1075 24.3054,-25.3354 24.6742,-25.7021 25.1201,-25.97 25.6171,-26.1233 26.1364,-26.1532 26.6478,-26.058 27.1215,-25.8432 27.53,-25.5212 27.8496,-25.1108 28.0617,-24.6359 28.154,-24.124 28.1211,-23.6049 27.9649,-23.1088 27.143,-20.6161 26.3034,-15.6253 26.3187,-10.1006 26.9597,-4.5034 27.1134,-1.0957 28.4326,-2.3572 31.5248,-6.1958 35.1254,-9.8038 38.5026,-8.4616 39.8931,-4.0732 38.8287,-2.8216 40.1762,-4.309 44.1379,-7.0184 47.4681,-10.4255 49.7075,-12.6571 50.3043,-12.9831 50.9739,-13.1014 51.6463,-12.9997 52.251,-12.6887 52.7247,-12.2008 53.0179,-11.5872 53.0997,-10.9122 52.9618,-10.2463 52.6184,-9.6593 52.1056,-9.2127 51.477,-8.9533 50.7985,-8.9081 50.1411,-9.082 49.5736,-9.4566 49.1555,-9.9929 48.9304,-10.6346 48.9221,-11.3146 49.1313,-11.9616 49.5362,-12.5079 50.0943,-12.8964 50.7473,-13.0863 51.4267,-13.0578 52.0614,-12.8138 52.5851,-12.3799 52.9427,-11.8016 53.097,-11.1393 53.0317,-10.4624 52.7536,-9.8418 52.564,-9.5546 50.7061,-7.4338 47.1517,-3.3895 43.6603,-0.338 39.9623,1.4288 36.5884,-1.3876 35.004,-6.3999 35.5411,-6.944 34.8772,-3.9539 31.8898,0.3632 28.8587,3.0821 25.6625,1.2461 23.2383,-4.0214 22.4384,-10.0378 22.2595,-15.8178 23.2187,-21.8818 24.3054,-25.3354 24.6742,-25.7021 25.1201,-25.97 25.6171,-26.1233 26.1364,-26.1532 26.6478,-26.058 27.1215,-25.8432 27.53,-25.5212 27.8496,-25.1108 28.0617,-24.6359 28.154,-24.124 28.1211,-23.6049 27.9649,-23.1088 26.5622,-21.9024 24.3009,-19.4131 22.0395,-15.4331 19.4912,-10.3697 16.4911,-5.3823 13.0273,-2.5488 10.5653,-4.6082 10.4858,-9.8848 11.9256,-15.0774 14.5015,-20.4143 16.4858,-23.5085 16.8909,-23.8271 17.3604,-24.0394 17.867,-24.1332 18.3814,-24.103 18.8736,-23.9507 19.3151,-23.6849 19.6801,-23.3212 19.9475,-22.8807 20.1017,-22.389 20.1337,-21.8748 20.0417,-21.3678 19.8311,-20.8975 17.872,-19.4877 14.6707,-16.4605 11.6629,-12.6014 8.2526,-8.1449 5.2473,-3.7674 3.1587,-0.2573 1.9581,1.7018 1.1577,2.3216 0.1811,2.5879 -0.8231,2.4602 -1.7019,1.958 -2.3217,1.1576 -2.5879,0.181 -2.4602,-0.8232 -2.2965,-1.3124 -1.3814,-2.8528 Z" fill="#599f57" stroke-linecap="round"/></g><g transform="matrix(1, 0, 0, 1, 407, 677)" opacity="1"><path d="M-2.3453,-2.8762 Q-1.9958,-5.5278 -2.219,-8.5767 T-2.9717,-14.1993 -2.5733,-17.6718 -2.1135,-15.3322 -2.2668,-10.0474 -1.5164,-6.1353 -1.7619,-3.3541 -0.8997,-4.0465 3.2006,-9.2289 7.9243,-15.7566 12.2222,-21.2779 15.4568,-25.4514 18.5909,-27.8156 21.1502,-24.002 21.9329,-15.3874 22.9682,-7.8849 24.4062,-1.7784 24.5273,1.3796 25.3093,0.3047 27.5883,-3.7015 29.3484,-8.0548 31.0412,-11.9138 32.0656,-14.0743 32.3789,-14.506 32.7864,-14.8502 33.2645,-15.0869 33.7853,-15.2023 34.3186,-15.1897 34.8333,-15.0498 35.2997,-14.7908 35.6905,-14.4277 35.9831,-13.9816 36.1604,-13.4785 36.2121,-12.9476 36.1353,-12.4197 35.8535,-9.9282 36.6048,-5.4574 39.307,-0.8352 41.2248,1.9131 41.4554,2.6804 41.4289,3.4812 41.1481,4.2316 40.6424,4.853 39.9647,5.2805 39.186,5.4691 38.3879,5.3993 37.6538,5.0782 37.0607,4.5396 36.6706,3.8397 36.5244,3.052 36.6374,2.2587 36.9978,1.5432 37.5678,0.9801 38.2877,0.6285 39.0823,0.5252 39.8682,0.6811 40.5632,1.0797 41.0945,1.6794 41.4066,2.4173 41.4667,3.2163 41.2685,3.9926 40.8328,4.665 40.2052,5.163 39.4514,5.4346 38.6504,5.4513 37.8859,5.2114 37.2382,4.7399 36.9531,4.4513 35.9442,3.0443 34.0781,0.3442 32.5234,-2.4549 31.4907,-5.5199 31.5455,-10.459 32.0656,-14.0743 32.3789,-14.506 32.7864,-14.8502 33.2645,-15.0869 33.7853,-15.2023 34.3186,-15.1897 34.8333,-15.0498 35.2997,-14.7908 35.6905,-14.4277 35.9831,-13.9816 36.1604,-13.4785 36.2121,-12.9476 36.1353,-12.4197 35.0127,-10.2985 33.2033,-6.5421 31.4067,-1.7778 27.6816,3.4498 23.2557,3.7998 20.8047,-0.8945 19.213,-7.3195 17.9945,-15.1725 17.9196,-22.1973 18.9356,-24.9397 18.4928,-23.1105 15.2905,-18.9379 11.2032,-13.4377 6.4339,-6.528 1.4466,-0.3219 -2.5508,0.7457 -4.6815,-1.9085 -5.5566,-5.3236 -6.4638,-9.7741 -6.8514,-15.0476 -4.6991,-20.3314 -1.004,-20.2683 1.3317,-14.8976 2.4659,-8.6041 2.7897,-2.4555 2.5493,0.7317 2.0752,1.6516 1.2852,2.32 0.2995,2.6353 -0.7318,2.5493 -1.6517,2.0751 -2.3201,1.2851 -2.6353,0.2994 -2.6948,-0.2247 -2.3453,-2.8762 Z" fill="#599f57" stroke-linecap="round"/></g></svg>